# xmcd
#
# Track frame offsets: 
#        150
#        13875
#        28938
#        43855
#        59583
#        72609
#        88520
#        102864
#        117374
#        131604
#        141851
#        160400
#
# Disc length: 2292 seconds
#
# Revision: 0
# Processed by: cddbd v1.5.2PL0 Copyright (c) Steve Scherf et al.
# Submitted via: ExactAudioCopyFreeDBPlugin 1.0
#
DISCID=b408f20c
DTITLE=Tipps für Wilhelm - Hornissen
DYEAR=2014
DGENRE=Hip-Hop
TTITLE0=Gehen oder bleiben
TTITLE1=Bleib in deiner Stadt
TTITLE2=Ganz weit im Osten
TTITLE3=Vor deiner Tür
TTITLE4=Sieben Tage wach
TTITLE5=Gefährlich
TTITLE6=Keine Zeit
TTITLE7=Warnemünde
TTITLE8=Nicht wegen Dir
TTITLE9=Schöne Zeiten
TTITLE10=Bolivien
TTITLE11=Hornissen
EXTD=
EXTT0=
EXTT1=
EXTT2=
EXTT3=
EXTT4=
EXTT5=
EXTT6=
EXTT7=
EXTT8=
EXTT9=
EXTT10=
EXTT11=
PLAYORDER=
